<svg xmlns="http://www.w3.org/2000/svg" viewBox="0 0 228.66 283.71"><defs><style>.cls-1{fill:#6f3108;}.cls-2{fill:#d97e43;}.cls-3{fill:#ad5d31;}.cls-4,.cls-5{fill:#fff;}.cls-4{opacity:0.1;}.cls-6{fill:#231f20;}.cls-7{fill:#fb422d;}</style></defs><g id="Layer_2" data-name="Layer 2"><g id="Layer_1-2" data-name="Layer 1"><path class="cls-1" d="M54.5,207.63l-2.19-8.55c-38,9.72-52.27,31.46-12.78,51.85a60.69,60.69,0,0,0-11.07,5.7c-6.9,4.93-2.41,14.37,0,12.5l25.89-19.81C49.56,245.42-6.51,223.32,54.5,207.63Z"/><path class="cls-1" d="M27.63,9s1.46-3.85-.09-6.16C24.94-1.12,14-1.48,9.76,5.34,8.13,8,10.4,13.79,12.43,16.17-19.91,74.74,21,137,21.46,137.61L27,133.92c-.39-.59-38.94-59.34-8.9-114.23,3.16-1,8.25-.13,9.84-3.66C30,11.52,27.63,9,27.63,9Z"/><path class="cls-1" d="M228.61,186.24c-1-8.32-11.15-12-15.2-8.63-2.4,2-2.58,7.27-2.58,7.27s-3.32,2.76-2.81,6.32,4.31,4.64,6.46,5c-1.18,10.7-5.78,30.82-13.82,32.15a1.63,1.63,0,0,1-1.48-.49c-5.42-4.69-7.41-28.24-7.1-43.47l-7.39-.15c-.15,6.7-.34,40.57,9.64,49.21a9,9,0,0,0,6.53,2.31,8.27,8.27,0,0,0,1-.11c15.07-2.49,19.18-31.41,20-38.7C226.08,195.07,229.09,190.13,228.61,186.24Z"/><path class="cls-1" d="M152.85,215,146.44,221c23.52,25.24.81,30.22-33.78,30.58.52,1.84,8,28.39,8.85,31.35s9.87-3,7.29-11.06a57.75,57.75,0,0,0-6.07-11.94C175.76,254.57,172.58,235.74,152.85,215Z"/><path class="cls-2" d="M25.9,84.6c-2.8,5.12-4.64,10.69-6.46,16.23-2.64,8-5.29,16.1-6,24.5a73.79,73.79,0,0,0,2.06,22.53c2,8.84,5.16,17.6,10.67,24.8,3.54,4.63,8,8.55,11.12,13.48,2.89,4.57,4.51,9.85,7.41,14.41C50.6,209.8,61,215,70.84,219.78c7.55,3.66,15.28,7.37,23.62,8.36C108,229.75,121.36,224,135,223.4c6.47-.29,13,.58,19.39-.56,8.33-1.5,15.67-6.3,22.4-11.43,11.6-8.83,22.68-19.72,26.47-33.8,1.76-6.55,1.85-13.47,3.58-20,2.34-8.84,7.62-16.8,9.09-25.82.86-5.24.38-10.6-.31-15.86-2-15.31-6.47-31.35-18.05-41.58-6.48-5.72-14.63-9.1-22.36-13-19.28-9.64-37.9-23.13-59.44-23.89-8.81-.3-17.54,1.59-26.15,3.47-13.14,2.87-26.4,3.52-35.68,13.94S33,72.28,25.9,84.6Z"/><path class="cls-3" d="M215.69,115.91c-2-15.31-6.48-31.35-18.06-41.58-1.07-.94-2.19-1.83-3.35-2.66,6.46,9.62,9.42,21.72,11,33.4.69,5.26,1.16,10.62.31,15.86-1.48,9-6.75,17-9.09,25.82-1.74,6.56-1.82,13.48-3.59,20-3.79,14.08-14.86,25-26.46,33.8-6.73,5.13-14.07,9.93-22.4,11.43-6.38,1.14-12.92.27-19.39.56-13.64.6-27,6.35-40.54,4.74-8.33-1-16.06-4.7-23.61-8.36a109,109,0,0,1-16-8.95l.34.56c5.89,9.25,16.26,14.46,26.13,19.23,7.55,3.66,15.28,7.37,23.61,8.36,13.56,1.61,26.9-4.13,40.54-4.74,6.47-.29,13,.58,19.39-.56,8.33-1.49,15.67-6.3,22.4-11.42,11.6-8.84,22.67-19.73,26.46-33.81,1.77-6.55,1.85-13.47,3.59-20,2.34-8.84,7.61-16.8,9.09-25.82C216.85,126.53,216.38,121.17,215.69,115.91Z"/><path class="cls-1" d="M41.81,100.06a5.12,5.12,0,0,0-.6,2.31,4.46,4.46,0,0,0,.54,1.56,16.57,16.57,0,0,0,8.7,8,12.35,12.35,0,0,0,11.49-1.41,9.92,9.92,0,0,0,3.65-10.69c-2-6-.18-15.71-9.1-15.93C47,83.62,44.73,93.14,41.81,100.06Z"/><path class="cls-1" d="M131.41,70.33c-.24,2,.78,3.85.76,5.8s-1.06,4-.21,5.77a6,6,0,0,0,2.54,2.24c4.06,2.36,8.37,4.74,13.08,4.88s9.85-2.74,10.6-7.38a7.56,7.56,0,0,0-2.48-6.8c-2.21-1.89-5.39-2.37-7.5-4.37-2.6-2.45-3.81-4.74-7.55-5.25C137.12,64.73,131.91,66.2,131.41,70.33Z"/><path class="cls-1" d="M154.3,167.5c.18,3.38,1.92,6.59,1.7,10a10,10,0,0,0-.07,2,4.69,4.69,0,0,0,1.42,2.54c3.68,3.71,10.18,3.15,14.35,0,7.41-5.62,13.18-20.93,3.14-26.93C166.68,150.17,153.81,158.2,154.3,167.5Z"/><path class="cls-1" d="M72.57,196.65A9.82,9.82,0,0,0,69.2,200a4.13,4.13,0,0,0,.25,4.52,6.06,6.06,0,0,0,1.92,1.31,68.71,68.71,0,0,0,15.37,5.49,18.38,18.38,0,0,0,6.91.56c10.87-1.68,3.28-10.23-1.48-14C86.38,193.21,78.79,192.38,72.57,196.65Z"/><path class="cls-1" d="M47.22,150a5.12,5.12,0,0,0-.71,2.79,5,5,0,0,0,3.27,3.82,31.64,31.64,0,0,0,5.12,1.26,17.84,17.84,0,0,1,6.22,2.8,13.33,13.33,0,0,0,3.1,1.92c2.91,1,6.26-1.25,7.06-4.22s-.56-6.22-2.77-8.36C62.91,144.54,51.71,141.55,47.22,150Z"/><path class="cls-4" d="M34.26,77.07c-1.85,1.59-3.75,3.25-4.72,5.48-1.21,2.76-.79,5.92-.9,8.93-.24,6.78-3.19,13.13-5.45,19.53s-3.81,13.57-1.31,19.89a1.41,1.41,0,0,0,.45.69c.76.53,1.6-.58,1.88-1.46,2.72-8.63,5.45-17.32,6.44-26.32.38-3.49.5-7,1.43-10.42,1.42-5.14,4.61-9.6,7.86-13.83,2.56-3.33,5.35-6.72,9.19-8.42,7.21-3.18,15.45.5,23.33.74a26.64,26.64,0,0,0,17.82-6.23c2.65-2.23,4.86-5,7.72-6.94a29.18,29.18,0,0,1,8.24-3.56c9.79-2.91,20.5-4.17,30.09-.67,3.12,1.14,6.06,2.76,9.26,3.64s6.85.93,9.6-.93c-1.3-4.06-6.37-5.15-10.49-6.28-6.65-1.84-12.73-5.44-19.44-7.1a41.32,41.32,0,0,0-24.17,1.85c-3.65,1.37-7.18,3.18-11,3.89-3.54.65-7.18.32-10.76.62C62,51.64,46.73,66.35,34.26,77.07Z"/><path class="cls-1" d="M177.56,106.34c-1.51,1.37-1.34,3.83-.55,5.71s2.07,3.58,2.5,5.57a22.63,22.63,0,0,0,.48,2.48,8.94,8.94,0,0,0,2.44,3.3,6.41,6.41,0,0,0,3.23,2.07c1.92.31,3.68-1.19,4.78-2.81,2.55-3.79,4.11-12.13-.55-15.17C187.53,105.94,179.74,104.35,177.56,106.34Z"/><circle class="cls-5" cx="144.05" cy="125.04" r="14.59" transform="translate(-45.14 149.38) rotate(-48.29)"/><path class="cls-6" d="M146.24,114.3a10,10,0,1,0,5.49,13.11A10,10,0,0,0,146.24,114.3Zm-5.34,5.35c-2.17.26-3.72-.19-3.89-1.61s1.45-2.79,3.62-3.05,4.07.68,4.24,2.1S143.07,119.39,140.9,119.65Zm5,11.2a1.37,1.37,0,1,1,.87-1.95A1.52,1.52,0,0,1,145.91,130.85Z"/><circle class="cls-5" cx="84.5" cy="112.71" r="14.59" transform="translate(-56.34 109.65) rotate(-51.89)"/><path class="cls-6" d="M86.6,103a10,10,0,1,0,5.49,13.1A10,10,0,0,0,86.6,103Zm-4.81,5.22c-2.17.26-3.72-.19-3.89-1.61s1.45-2.79,3.62-3,4.07.68,4.24,2.1S84,107.91,81.79,108.17Zm4.1,11.37a1.37,1.37,0,1,1,.87-2A1.54,1.54,0,0,1,85.89,119.54Z"/><path class="cls-6" d="M134.23,165.48c6.12,9.21-6.89,23.76-27.94,20.43s-27.51-22.2-20.24-28c4.17-3.35,11.64,2.41,24,4.36S131.2,160.91,134.23,165.48Z"/><path class="cls-5" d="M130.34,166.26c.24,1.83-9.67,3.46-20.53,1.65s-19-5.77-18.67-7.57,8.48,1.78,19.34,3.59S130.1,164.45,130.34,166.26Z"/><path class="cls-7" d="M90.3,176a30.51,30.51,0,0,0,16.06,7.75,32.56,32.56,0,0,0,19.07-1.95C115.22,167.42,98.8,169.5,90.3,176Z"/></g></g></svg>