<svg xmlns="http://www.w3.org/2000/svg" viewBox="0 0 186.79 27.53"><defs><style>.cls-1{fill:#7c4e35;}.cls-2{fill:#fff;}.cls-3{fill:none;stroke:#a48887;stroke-width:0.96px;}.cls-4{fill:#fefefe;}.cls-5{fill:#cfdfe8;}.cls-6{fill:#070707;}</style></defs><g id="Layer_2" data-name="Layer 2"><g id="Layer_1-2" data-name="Layer 1"><path class="cls-1" d="M56.45,25.37a2.61,2.61,0,0,1-.92-.17,3.78,3.78,0,0,1-1.21-.77A5.46,5.46,0,0,1,53.26,23a8.48,8.48,0,0,1-.74-2.28,15.75,15.75,0,0,1-.25-3.19,30,30,0,0,1,.39-4.27c.23-1.49.48-2.77.73-3.78q.16-.69.36-1.29l-1.37.75a17.16,17.16,0,0,1-2.67,1.21,10.92,10.92,0,0,1-2.82.6l-.49,0a7.17,7.17,0,0,1-2.53-.48,4.54,4.54,0,0,1-2.08-1.44,4.73,4.73,0,0,1-.89-2,5.43,5.43,0,0,1,0-2,5.16,5.16,0,0,1,.69-1.72,2.68,2.68,0,0,1,1.17-1,1.4,1.4,0,0,1,.59-.13,1.52,1.52,0,0,1,1,.39,8.23,8.23,0,0,0,1.45,1,4.9,4.9,0,0,0,1.68.46,8.31,8.31,0,0,0,.91,0A13.73,13.73,0,0,0,50,3.68c1-.11,2.32-.34,3.86-.67,1.12-.27,2.3-.51,3.48-.72a26.79,26.79,0,0,1,3.45-.42l1,0A15.34,15.34,0,0,1,64,2a7.58,7.58,0,0,1,2.76.94A3.76,3.76,0,0,1,68.27,4.5a3.47,3.47,0,0,1,.38,1.72,4,4,0,0,1-.38,1.57,3.12,3.12,0,0,1-.85,1.14,1.58,1.58,0,0,1-1,.39.75.75,0,0,1-.21,0c-.33-.05-.76-.28-1-1.09a3.42,3.42,0,0,0-1.6-2,4.88,4.88,0,0,0-2.23-.63l.12.26a3.92,3.92,0,0,1,.22,1.65,9.86,9.86,0,0,1-.34,1.92c-.18.68-.39,1.39-.65,2.16s-.5,1.54-.75,2.35-.48,1.62-.67,2.42c-.09.38-.18.81-.26,1.3s-.16,1-.23,1.52-.1,1-.13,1.52a9.6,9.6,0,0,0,0,1.33,4.43,4.43,0,0,1-.27,2.13,2,2,0,0,1-1.75,1.21Z"/><path class="cls-2" d="M61.82,2.34a15.91,15.91,0,0,1,2.11.14,7.11,7.11,0,0,1,2.57.88,3.26,3.26,0,0,1,1.32,1.35,3.26,3.26,0,0,1,0,2.86,2.72,2.72,0,0,1-.72,1,1.09,1.09,0,0,1-.68.27h-.13c-.27,0-.46-.29-.59-.73a3.93,3.93,0,0,0-1.82-2.29,5.76,5.76,0,0,0-3-.72l-.71,0A1.7,1.7,0,0,1,61,6a3.43,3.43,0,0,1,.19,1.44,9.57,9.57,0,0,1-.32,1.82c-.18.67-.39,1.38-.64,2.13s-.5,1.54-.76,2.36-.48,1.63-.68,2.45c-.09.39-.18.84-.27,1.33s-.16,1-.22,1.55-.11,1.05-.14,1.56a10.71,10.71,0,0,0,0,1.4A4,4,0,0,1,58,24a1.49,1.49,0,0,1-1.34.9h-.2a2.14,2.14,0,0,1-.75-.14,3.05,3.05,0,0,1-1-.67,4.8,4.8,0,0,1-1-1.33A8.28,8.28,0,0,1,53,20.59a15.5,15.5,0,0,1-.24-3.09,29.24,29.24,0,0,1,.39-4.2c.23-1.49.47-2.74.72-3.74a15.36,15.36,0,0,1,.79-2.49l-2.53,1.4a17.05,17.05,0,0,1-2.59,1.17,10.5,10.5,0,0,1-2.69.57l-.46,0A6.71,6.71,0,0,1,44,9.78a4,4,0,0,1-1.85-1.27,4.36,4.36,0,0,1-.8-1.76,4.8,4.8,0,0,1,0-1.85A4.57,4.57,0,0,1,42,3.35a2.31,2.31,0,0,1,1-.87,1.09,1.09,0,0,1,.39-.08,1,1,0,0,1,.66.27,8.75,8.75,0,0,0,1.55,1,5.22,5.22,0,0,0,1.85.52,9.66,9.66,0,0,0,1,0c.5,0,1.06,0,1.67-.1,1-.12,2.34-.35,3.9-.68,1.14-.27,2.29-.51,3.46-.72a28.39,28.39,0,0,1,3.4-.42l1,0m0-1h0l-1,0a27.9,27.9,0,0,0-3.51.42c-1.19.22-2.37.46-3.52.73A37.17,37.17,0,0,1,50,3.18a12.94,12.94,0,0,1-1.56.1c-.31,0-.6,0-.86,0a4.36,4.36,0,0,1-1.5-.42,7.64,7.64,0,0,1-1.37-.92,1.93,1.93,0,0,0-2.09-.33A3.25,3.25,0,0,0,41.2,2.8a5.62,5.62,0,0,0-.76,1.88,5.68,5.68,0,0,0,0,2.25,5.12,5.12,0,0,0,1,2.18,5,5,0,0,0,2.3,1.61,7.63,7.63,0,0,0,2.7.51l.53,0a11.6,11.6,0,0,0,3-.63,18.61,18.61,0,0,0,2.75-1.24l.31-.17a.83.83,0,0,1,0,.15c-.25,1-.5,2.31-.73,3.83a29.48,29.48,0,0,0-.4,4.34A16.81,16.81,0,0,0,52,20.78a9.1,9.1,0,0,0,.78,2.41A5.77,5.77,0,0,0,54,24.8a4.18,4.18,0,0,0,1.38.87,3.16,3.16,0,0,0,1.09.2,1.67,1.67,0,0,0,.32,0,2.46,2.46,0,0,0,2.14-1.51,4.78,4.78,0,0,0,.3-2.37,10.25,10.25,0,0,1,0-1.25c0-.48.07-1,.13-1.5s.13-1,.22-1.48.17-.91.26-1.29c.18-.77.4-1.58.65-2.37s.51-1.59.76-2.34.47-1.51.65-2.19a10.28,10.28,0,0,0,.36-2,4.48,4.48,0,0,0-.1-1.34,3.58,3.58,0,0,1,1.23.45,3,3,0,0,1,1.39,1.72A1.76,1.76,0,0,0,66.13,9.8l.29,0a2.07,2.07,0,0,0,1.31-.5,3.53,3.53,0,0,0,1-1.32,4.27,4.27,0,0,0,0-3.72A4.34,4.34,0,0,0,67,2.51a8.33,8.33,0,0,0-3-1,16.5,16.5,0,0,0-2.26-.15Z"/><path class="cls-1" d="M74.39,20.65a5.79,5.79,0,0,1-2.28-.38,3.32,3.32,0,0,1-1.37-1,3.06,3.06,0,0,1-.6-1.41,5.1,5.1,0,0,1,0-1.46,1,1,0,0,0,0-.5L70,16a1.4,1.4,0,0,0-.13.75,1.29,1.29,0,0,1,0,.24c0,.43,0,.87.06,1.27a4.1,4.1,0,0,1-.12,1.16,1.73,1.73,0,0,1-.6.92,1.9,1.9,0,0,1-1.2.35,5.28,5.28,0,0,1-1.75-.3,3.51,3.51,0,0,1-1.66-1.27,8.08,8.08,0,0,1-1.18-2.58,19.88,19.88,0,0,1-.6-4.32,25.34,25.34,0,0,1,.07-4.29,7.78,7.78,0,0,1,.82-2.83,3.56,3.56,0,0,1,1.78-1.59,7,7,0,0,1,2.57-.42,3.59,3.59,0,0,1,2.62.81A3,3,0,0,1,71.57,6a7.75,7.75,0,0,1-.42,2.63c-.12.38-.26.77-.4,1.16a4.64,4.64,0,0,1,1.31-.46A6,6,0,0,1,73,9.21a4.57,4.57,0,0,1,1,.11,3.67,3.67,0,0,1,1.55.78,3.51,3.51,0,0,1,1,1.41,4.59,4.59,0,0,1,.26,1.9,1.37,1.37,0,0,0,.09.78c0,.09.08.1.08.1s.1,0,.31-.22a3.17,3.17,0,0,0,.55-1l.55-1.53.4,1.57A8.26,8.26,0,0,1,79,15.68a6.17,6.17,0,0,1-.59,2.43,4.63,4.63,0,0,1-1.54,1.82A4.2,4.2,0,0,1,74.39,20.65Z"/><path class="cls-2" d="M68.1,3.55a3.13,3.13,0,0,1,2.27.67A2.53,2.53,0,0,1,71.07,6a7.33,7.33,0,0,1-.4,2.47q-.44,1.37-1,2.76a5.83,5.83,0,0,1,1.15-.91,4.09,4.09,0,0,1,1.35-.51A4.81,4.81,0,0,1,73,9.71a3.68,3.68,0,0,1,.89.1,3,3,0,0,1,1.33.67A3.08,3.08,0,0,1,76,11.69a4.11,4.11,0,0,1,.22,1.69,2,2,0,0,0,.15,1,.59.59,0,0,0,.52.36,1,1,0,0,0,.68-.38,3.51,3.51,0,0,0,.65-1.22,8,8,0,0,1,.25,2.47A5.81,5.81,0,0,1,78,17.9a4.22,4.22,0,0,1-1.37,1.62,3.73,3.73,0,0,1-2.2.63,5.22,5.22,0,0,1-2.08-.34A2.75,2.75,0,0,1,71.14,19a2.63,2.63,0,0,1-.51-1.19,4.48,4.48,0,0,1,0-1.32,1.35,1.35,0,0,0-.14-.85.47.47,0,0,0-.38-.27h0c-.16,0-.31.13-.46.35a2,2,0,0,0-.21,1,.49.49,0,0,0,0,.12.74.74,0,0,1,0,.12c0,.46,0,.89.06,1.28a3.42,3.42,0,0,1-.1,1,1.26,1.26,0,0,1-.43.67,1.41,1.41,0,0,1-.89.24,4.92,4.92,0,0,1-1.59-.27A3.1,3.1,0,0,1,65,18.78,7.31,7.31,0,0,1,64,16.36a18.74,18.74,0,0,1-.59-4.21A24.28,24.28,0,0,1,63.43,8a7.09,7.09,0,0,1,.75-2.64,3,3,0,0,1,1.54-1.37,6.41,6.41,0,0,1,2.38-.39m0-1A7.33,7.33,0,0,0,65.35,3a4,4,0,0,0-2,1.8,7.93,7.93,0,0,0-.89,3,26.44,26.44,0,0,0-.07,4.38A20.16,20.16,0,0,0,63,16.64a8.24,8.24,0,0,0,1.26,2.74,4.06,4.06,0,0,0,1.9,1.45,6,6,0,0,0,1.91.32,2.4,2.4,0,0,0,1.51-.46,2.12,2.12,0,0,0,.76-1.16l0,0a3.84,3.84,0,0,0,1.57,1.18,6.25,6.25,0,0,0,2.48.42,4.69,4.69,0,0,0,2.77-.81,5.11,5.11,0,0,0,1.7-2,6.92,6.92,0,0,0,.64-2.62,9,9,0,0,0-.28-2.77L78.4,9.8l-1.09,3.06c0,.05,0,.09,0,.13a4.85,4.85,0,0,0-.3-1.66,3.86,3.86,0,0,0-1.1-1.6,4,4,0,0,0-1.76-.89A4.58,4.58,0,0,0,73,8.71a5.81,5.81,0,0,0-1,.09,2.59,2.59,0,0,0-.4.09c0-.05,0-.1,0-.15a8.23,8.23,0,0,0,.45-2.8,3.5,3.5,0,0,0-1-2.43,4,4,0,0,0-3-1Z"/><path class="cls-1" d="M83.42,20.65a6.19,6.19,0,0,1-4-1.26,5.12,5.12,0,0,1-1.88-3.58,7.18,7.18,0,0,1,.15-2.65,5.06,5.06,0,0,1,1.1-2.09,5.15,5.15,0,0,1,1.94-1.36,6.79,6.79,0,0,1,2.64-.48,6.61,6.61,0,0,1,2.48.44,3.67,3.67,0,0,1,1.75,1.41,2.48,2.48,0,0,1,.4,1.59,3.69,3.69,0,0,1-.21.93,3,3,0,0,0,.25-.57l.49-1.44L89,13a6.71,6.71,0,0,1,.2,2.77,5.07,5.07,0,0,1-1.87,3.58A6.19,6.19,0,0,1,83.42,20.65Zm1.21-7.22a.4.4,0,0,0-.17.09.39.39,0,0,0-.16.18,1.58,1.58,0,0,0,.38,0c.17,0,.18-.09.19-.16s0,0-.08-.05h-.16Z"/><path class="cls-2" d="M83.42,9.73a6,6,0,0,1,2.29.4,3.21,3.21,0,0,1,1.52,1.23,2,2,0,0,1,.32,1.27A2.81,2.81,0,0,1,87.08,14a3.17,3.17,0,0,1-2.71,1.4h-.23a1.67,1.67,0,0,0,1,.29,3.56,3.56,0,0,0,2-.65,3.47,3.47,0,0,0,1.36-1.83,6.37,6.37,0,0,1,.19,2.56A4.61,4.61,0,0,1,87.06,19a6.34,6.34,0,0,1-7.28,0,4.58,4.58,0,0,1-1.69-3.25,6.6,6.6,0,0,1,.13-2.46A4.52,4.52,0,0,1,81,10.17a6.45,6.45,0,0,1,2.45-.44m.86,4.47a2.1,2.1,0,0,0,.51-.06.65.65,0,0,0,.57-.6.45.45,0,0,0-.09-.36A.64.64,0,0,0,85,13a.73.73,0,0,0-.25,0h-.16a.84.84,0,0,0-.4.2.81.81,0,0,0-.32.4,2.54,2.54,0,0,0-.16.59,3.37,3.37,0,0,0,.62.07m-.86-5.47a7.21,7.21,0,0,0-2.83.52,5.65,5.65,0,0,0-2.13,1.49A5.53,5.53,0,0,0,77.26,13a7.57,7.57,0,0,0-.16,2.84,5.58,5.58,0,0,0,2.06,3.92,7.35,7.35,0,0,0,8.52,0,5.58,5.58,0,0,0,2.06-3.92,7.17,7.17,0,0,0-.23-3L88.6,10l-.38,1.09a1.56,1.56,0,0,0-.16-.28,4.23,4.23,0,0,0-2-1.6,7.22,7.22,0,0,0-2.67-.47Z"/><path class="cls-1" d="M108.12,26a10.19,10.19,0,0,1-1.24-.07,12.63,12.63,0,0,1-3.47-.87,11.68,11.68,0,0,1-3.16-1.92A6.64,6.64,0,0,1,98.45,21,3.77,3.77,0,0,1,98,19.09a1.65,1.65,0,0,1,.22-.7h-.2A5.24,5.24,0,0,1,97,18.28,4.58,4.58,0,0,1,95,17.35a3.65,3.65,0,0,1-1.25-2,6.37,6.37,0,0,1,.08-3.54,8.78,8.78,0,0,1,2-3.34A16.27,16.27,0,0,1,99.6,5.56,27.7,27.7,0,0,1,105,3.18a34.72,34.72,0,0,1,5.5-1.34,21.47,21.47,0,0,1,2.93-.23,11.53,11.53,0,0,1,1.21.06,7.56,7.56,0,0,1,3,.82,5,5,0,0,1,1.82,1.61,4.32,4.32,0,0,1,.74,2.11,6.34,6.34,0,0,1-.23,2.24,5.19,5.19,0,0,1-1,1.85,8.08,8.08,0,0,1-1.46,1.4,12.89,12.89,0,0,1-1.68,1.07l-.18.1L116,13a4,4,0,0,1,1.61,1.36,4.75,4.75,0,0,1,.79,2.2,6.53,6.53,0,0,1-.38,2.89,8.92,8.92,0,0,1-1.75,3.06,10,10,0,0,1-2.64,2.12,11.1,11.1,0,0,1-3.22,1.14A12.36,12.36,0,0,1,108.12,26Zm-.78-9.59a11,11,0,0,0,0,1.15c0,.52,0,1,.07,1.46s0,1,0,1.44c0,.19,0,.38,0,.55a6.37,6.37,0,0,0,.91-.18,4.86,4.86,0,0,0,1.26-.59A3.1,3.1,0,0,0,111,18.1a1.07,1.07,0,0,0-.2-.89,2.2,2.2,0,0,0-.91-.6,4.3,4.3,0,0,0-1.39-.25h-.23A6.29,6.29,0,0,0,107.34,16.41Zm-7.47,1.65a2.85,2.85,0,0,1,.5.45,6,6,0,0,0,1.39,1.2l.34.21c-.15-.36-.3-.75-.44-1.19a11,11,0,0,1-.4-1.82,2.09,2.09,0,0,1-.52.63A3.14,3.14,0,0,1,99.87,18.06Zm1.58-9a4.43,4.43,0,0,0-1.63,2,2.79,2.79,0,0,0,.79,2.87,5,5,0,0,1,.43.57v-.28a19.06,19.06,0,0,1,.23-4.38C101.32,9.55,101.38,9.29,101.45,9.06Zm6-2.58a1.84,1.84,0,0,1,.4.26,2.24,2.24,0,0,1,.78,1.48,5.74,5.74,0,0,1-.08,1.91c-.08.42-.17.87-.27,1.33a9.67,9.67,0,0,0,2.51-1.14,4.55,4.55,0,0,0,1.55-1.57,1.38,1.38,0,0,0,.09-1.24,1.77,1.77,0,0,0-1.1-.92,5.52,5.52,0,0,0-2-.31l-.58,0A8.55,8.55,0,0,0,107.4,6.48Z"/><path class="cls-2" d="M113.43,2.11c.41,0,.8,0,1.16.05a7.11,7.11,0,0,1,2.76.76A4.64,4.64,0,0,1,119,4.38a3.79,3.79,0,0,1,.65,1.87,6.09,6.09,0,0,1-.21,2.07,4.55,4.55,0,0,1-.87,1.66,8.16,8.16,0,0,1-1.37,1.32,12.52,12.52,0,0,1-1.61,1,15.48,15.48,0,0,1-1.59.73,4,4,0,0,1,1.76.4,3.55,3.55,0,0,1,1.41,1.2,4.25,4.25,0,0,1,.71,2,5.93,5.93,0,0,1-.36,2.66,8.17,8.17,0,0,1-1.65,2.89,9.34,9.34,0,0,1-2.51,2,10.48,10.48,0,0,1-3.07,1.09,11.4,11.4,0,0,1-2.17.21,11.85,11.85,0,0,1-1.19-.06,12.34,12.34,0,0,1-3.33-.84,11.33,11.33,0,0,1-3-1.84,6.06,6.06,0,0,1-1.67-2,3.21,3.21,0,0,1-.37-1.6.79.79,0,0,1,.49-.77.51.51,0,0,1,.17,0,1.15,1.15,0,0,1,.79.49,6.65,6.65,0,0,0,1.5,1.29,8.88,8.88,0,0,0,1.86.9,7.24,7.24,0,0,1-1.22-2.45,16.74,16.74,0,0,1-.59-4.4,18.07,18.07,0,0,1,.21-4.26,4.78,4.78,0,0,1,1-2.24c-1.85,1-3,2.06-3.36,3.18a3.28,3.28,0,0,0,.88,3.37,2.53,2.53,0,0,1,.79,1.69,1.7,1.7,0,0,1-.6,1.24,3.19,3.19,0,0,1-1.5.66,4.91,4.91,0,0,1-.86.08,4.86,4.86,0,0,1-1-.11A4,4,0,0,1,95.34,17a3.21,3.21,0,0,1-1.08-1.74A5.84,5.84,0,0,1,94.34,12a8.36,8.36,0,0,1,1.89-3.15A15.87,15.87,0,0,1,99.86,6a27,27,0,0,1,5.3-2.33,32.58,32.58,0,0,1,5.41-1.32,20.52,20.52,0,0,1,2.86-.23m-8.67,4.64.52,0,.54,0a2.6,2.6,0,0,1,1.66.43,1.83,1.83,0,0,1,.61,1.17A5.62,5.62,0,0,1,108,10c-.13.66-.28,1.38-.45,2.14A11.49,11.49,0,0,0,111,10.73,5,5,0,0,0,112.74,9a1.89,1.89,0,0,0,.1-1.66,2.31,2.31,0,0,0-1.38-1.19,6,6,0,0,0-2.14-.34l-.61,0a13.56,13.56,0,0,0-3.95,1m2.08,14.81a6.77,6.77,0,0,0,1.65-.25,5.15,5.15,0,0,0,1.4-.66,3.61,3.61,0,0,0,1-1,3.55,3.55,0,0,0,.54-1.43,1.6,1.6,0,0,0-.32-1.3,2.68,2.68,0,0,0-1.12-.74,5,5,0,0,0-1.55-.28h-.24a6.6,6.6,0,0,0-1.36.14c0,.53,0,1.06,0,1.59s0,1,.08,1.47,0,1,0,1.42a3.9,3.9,0,0,1-.12,1.09m6.59-20.45a20.89,20.89,0,0,0-3,.24,33.62,33.62,0,0,0-5.58,1.36,27.61,27.61,0,0,0-5.5,2.42,16.55,16.55,0,0,0-3.85,3,9.33,9.33,0,0,0-2.11,3.53,6.77,6.77,0,0,0-.1,3.81,4.17,4.17,0,0,0,1.43,2.28,5.19,5.19,0,0,0,2.13,1c.24.05.48.08.72.11l0,.16A4.22,4.22,0,0,0,98,21.16a7,7,0,0,0,1.93,2.36,12.14,12.14,0,0,0,3.29,2,13.3,13.3,0,0,0,3.61.91c.43,0,.86.07,1.29.07a12.4,12.4,0,0,0,2.35-.23,11.18,11.18,0,0,0,3.37-1.2,10.23,10.23,0,0,0,2.78-2.22,9.56,9.56,0,0,0,1.85-3.23,7,7,0,0,0,.4-3.11,5.28,5.28,0,0,0-.88-2.42,4.48,4.48,0,0,0-1.28-1.25,11,11,0,0,0,1.09-.74,9.07,9.07,0,0,0,1.55-1.48,5.69,5.69,0,0,0,1.05-2,6.86,6.86,0,0,0,.25-2.41,5,5,0,0,0-.82-2.36,5.69,5.69,0,0,0-2-1.77,7.92,7.92,0,0,0-3.15-.88,12.32,12.32,0,0,0-1.25-.06Zm-4.88,5.71.22,0,.55,0a4.88,4.88,0,0,1,1.77.27,1.43,1.43,0,0,1,.84.65.92.92,0,0,1-.09.83,4,4,0,0,1-1.38,1.37,8.69,8.69,0,0,1-1.56.8q0-.25.09-.48a6.18,6.18,0,0,0,.09-2.07,2.81,2.81,0,0,0-.53-1.33Zm-8,6.1a1.91,1.91,0,0,1-.21-1.73,2.39,2.39,0,0,1,.33-.63,20.36,20.36,0,0,0-.12,2.36Zm7.32,4,.39,0h.21a3.85,3.85,0,0,1,1.23.22,1.6,1.6,0,0,1,.71.46s.13.15.08.51a2.49,2.49,0,0,1-1.13,1.78,4.2,4.2,0,0,1-1.11.52l-.25.06c0-.42,0-.88,0-1.39s-.07-1-.08-1.48c0-.22,0-.45,0-.67Zm-7.1,1.3L101,18c0,.18.08.36.13.53-.11-.12-.23-.24-.33-.36l0,0Z"/><path class="cls-1" d="M123.19,20.66h-.3a5.2,5.2,0,0,1-2-.52,4.62,4.62,0,0,1-1.52-1.25,5.14,5.14,0,0,1-.89-1.78,6.09,6.09,0,0,1-.16-2.2,7.28,7.28,0,0,1,.66-2.48,6.39,6.39,0,0,1,1.23-1.77,4.72,4.72,0,0,1,1.57-1,4.38,4.38,0,0,1,1.62-.33,5,5,0,0,1,1.34.17,3.84,3.84,0,0,1,1.76,1.07l.13.13a3.71,3.71,0,0,1,1.19-1,4.09,4.09,0,0,1,1.92-.44l.5,0a2.75,2.75,0,0,1,2.34,1.25,4.64,4.64,0,0,1,.26,2.92,1.15,1.15,0,0,0,0,.74c0,.08.06.09.06.09h0s.15,0,.38-.24a2.86,2.86,0,0,0,.56-1l.54-1.54.41,1.58a8.29,8.29,0,0,1,.27,2.62,6.53,6.53,0,0,1-.59,2.42A4.7,4.7,0,0,1,133,19.93a4.2,4.2,0,0,1-2.48.72,5.14,5.14,0,0,1-1.84-.3,4.34,4.34,0,0,1-1.31-.78,3.4,3.4,0,0,1-.67-.8,3.76,3.76,0,0,1-.75.85,4.6,4.6,0,0,1-1.31.78A3.87,3.87,0,0,1,123.19,20.66Zm2.43-7.47a.32.32,0,0,0-.28.13,1,1,0,0,0-.13.65.87.87,0,0,0,.13.56.34.34,0,0,0,.55,0A.79.79,0,0,0,126,14a1.08,1.08,0,0,0-.12-.67A.33.33,0,0,0,125.62,13.19Z"/><path class="cls-2" d="M129.72,9.76l.45,0a2.3,2.3,0,0,1,2,1,4.18,4.18,0,0,1,.21,2.6,1.8,1.8,0,0,0,.08,1,.57.57,0,0,0,.52.36,1.11,1.11,0,0,0,.72-.38,3.35,3.35,0,0,0,.68-1.22,8,8,0,0,1,.25,2.47A5.81,5.81,0,0,1,134,17.9a4.16,4.16,0,0,1-1.38,1.62,3.68,3.68,0,0,1-2.19.63,4.62,4.62,0,0,1-1.66-.27,3.69,3.69,0,0,1-1.15-.68,2.63,2.63,0,0,1-.71-.93,2.91,2.91,0,0,1-.27-1.05,2.4,2.4,0,0,1-.32,1.06,3.23,3.23,0,0,1-.78,1,3.77,3.77,0,0,1-1.17.69,3.31,3.31,0,0,1-1.22.23h-.26a4.5,4.5,0,0,1-1.83-.47,4.05,4.05,0,0,1-1.36-1.1,4.64,4.64,0,0,1-.8-1.62,5.73,5.73,0,0,1-.14-2,6.86,6.86,0,0,1,.61-2.32A6,6,0,0,1,120.54,11a4.08,4.08,0,0,1,1.4-.93,3.87,3.87,0,0,1,1.44-.3,4.28,4.28,0,0,1,1.2.15,3.39,3.39,0,0,1,.88.39,3.53,3.53,0,0,1,.66.54q.3.32.54.6A3.23,3.23,0,0,1,128,10.14a3.63,3.63,0,0,1,1.69-.38m-4.1,5.41a.87.87,0,0,0,.62-.28,1.23,1.23,0,0,0,.28-.9,1.46,1.46,0,0,0-.22-1,.82.82,0,0,0-.68-.33.81.81,0,0,0-.68.33,1.46,1.46,0,0,0-.23,1,1.23,1.23,0,0,0,.28.9.91.91,0,0,0,.63.28m4.1-6.41a4.55,4.55,0,0,0-2.15.5,4.18,4.18,0,0,0-1,.67,5.22,5.22,0,0,0-.6-.45A4.58,4.58,0,0,0,124.86,9a5.54,5.54,0,0,0-1.48-.19,4.91,4.91,0,0,0-1.8.37,5.07,5.07,0,0,0-1.74,1.15,6.83,6.83,0,0,0-1.33,1.9,7.82,7.82,0,0,0-.71,2.65,6.64,6.64,0,0,0,.18,2.38,5.32,5.32,0,0,0,1,2,4.94,4.94,0,0,0,1.69,1.38,5.57,5.57,0,0,0,2.22.58h.32a4.35,4.35,0,0,0,1.58-.29,4.84,4.84,0,0,0,1.87-1.27L127,20a4.79,4.79,0,0,0,1.47.86,5.6,5.6,0,0,0,2,.34,4.72,4.72,0,0,0,2.77-.81,5.19,5.19,0,0,0,1.7-2,6.92,6.92,0,0,0,.64-2.62,9.29,9.29,0,0,0-.28-2.77l-.83-3.14-1.07,3A4.38,4.38,0,0,0,133,10.3a3.22,3.22,0,0,0-2.73-1.51l-.54,0Z"/><path class="cls-1" d="M145.28,20.65a4.54,4.54,0,0,1-2-.44,6.47,6.47,0,0,1-1.62-1.06,7.39,7.39,0,0,1-.81-.87,3.75,3.75,0,0,1-.12,1.1,1.68,1.68,0,0,1-.6.92,1.88,1.88,0,0,1-1.2.35,5.37,5.37,0,0,1-1.75-.3,3.47,3.47,0,0,1-1.68-1.27,8.08,8.08,0,0,1-1.18-2.58,19.88,19.88,0,0,1-.6-4.32,25.36,25.36,0,0,1,.07-4.29,7.66,7.66,0,0,1,.82-2.83,3.56,3.56,0,0,1,1.78-1.59A7,7,0,0,1,139,3.05a3.64,3.64,0,0,1,2.56.76,2.84,2.84,0,0,1,.91,2,7.35,7.35,0,0,1-.32,2.48c-.12.39-.24.79-.38,1.19A5.52,5.52,0,0,1,144,8.83h.32a4.8,4.8,0,0,1,1.73.31,3.61,3.61,0,0,1,1.53,1.12,2.8,2.8,0,0,1,.61,1.8,3.83,3.83,0,0,1-.53,2.09,3.59,3.59,0,0,1-.44.57,5.47,5.47,0,0,0,.54-.41,3,3,0,0,0,.9-1.27l.55-1.53.4,1.57a8.26,8.26,0,0,1,.27,2.61,6.17,6.17,0,0,1-.59,2.43,4.62,4.62,0,0,1-1.54,1.82A4.2,4.2,0,0,1,145.28,20.65ZM141,13a.18.18,0,0,0-.15.07.75.75,0,0,0-.07.44c0,.28.06.36.08.38s.13.08.14.08.06,0,.14-.08.08-.1.08-.36a.79.79,0,0,0-.07-.46A.17.17,0,0,0,141,13Z"/><path class="cls-2" d="M139,3.55a3.25,3.25,0,0,1,2.23.63A2.32,2.32,0,0,1,142,5.83a6.94,6.94,0,0,1-.3,2.32,24.91,24.91,0,0,1-.94,2.65,6.3,6.3,0,0,1,.6-.48,5.4,5.4,0,0,1,.65-.4A5.16,5.16,0,0,1,144,9.33h.29a4.07,4.07,0,0,1,1.55.28,3.06,3.06,0,0,1,1.32,1,2.35,2.35,0,0,1,.5,1.49,3.34,3.34,0,0,1-.45,1.82A3,3,0,0,1,146.1,15a3.68,3.68,0,0,1-1.51.44l-.39,0a4.68,4.68,0,0,1-1.19-.16,2.47,2.47,0,0,0,1.58.67l.31,0a4.64,4.64,0,0,0,1.54-.28,5.12,5.12,0,0,0,1.66-1,3.44,3.44,0,0,0,1-1.48,8,8,0,0,1,.25,2.47,5.81,5.81,0,0,1-.54,2.24,4.22,4.22,0,0,1-1.37,1.62,3.73,3.73,0,0,1-2.2.63,4.08,4.08,0,0,1-1.76-.39,6.3,6.3,0,0,1-1.49-1,6.48,6.48,0,0,1-1.15-1.36,5.15,5.15,0,0,1-.66-1.48l.08,1c0,.46.06.89.08,1.28a3.42,3.42,0,0,1-.1,1,1.25,1.25,0,0,1-.42.67,1.46,1.46,0,0,1-.9.24,4.92,4.92,0,0,1-1.59-.27,3,3,0,0,1-1.44-1.1,7.51,7.51,0,0,1-1.1-2.42,19.43,19.43,0,0,1-.58-4.21,24.28,24.28,0,0,1,.07-4.2,7.09,7.09,0,0,1,.75-2.64,3,3,0,0,1,1.54-1.37A6.41,6.41,0,0,1,139,3.55m2,10.9a.72.72,0,0,0,.5-.23,1,1,0,0,0,.22-.71,1.06,1.06,0,0,0-.19-.78.65.65,0,0,0-.53-.26.67.67,0,0,0-.53.26,1.11,1.11,0,0,0-.19.78,1,1,0,0,0,.23.71.68.68,0,0,0,.49.23m-2-11.9a7.33,7.33,0,0,0-2.75.46,4,4,0,0,0-2,1.8,7.93,7.93,0,0,0-.89,3,26.44,26.44,0,0,0-.07,4.38,20.16,20.16,0,0,0,.62,4.43,8.24,8.24,0,0,0,1.26,2.74,4.06,4.06,0,0,0,1.92,1.45,6.07,6.07,0,0,0,1.91.32,2.38,2.38,0,0,0,1.51-.46,2.21,2.21,0,0,0,.78-1.18.31.31,0,0,1,0-.08l.09.09a7.3,7.3,0,0,0,1.74,1.15,5.07,5.07,0,0,0,2.18.48,4.69,4.69,0,0,0,2.77-.81,5.11,5.11,0,0,0,1.7-2,6.92,6.92,0,0,0,.64-2.62,9,9,0,0,0-.28-2.77l-.82-3.14-.62,1.74a3.19,3.19,0,0,0-.69-1.6,4,4,0,0,0-1.74-1.27,5.11,5.11,0,0,0-1.91-.35H144a5.91,5.91,0,0,0-1.42.26,1.54,1.54,0,0,1,.05-.17A7.87,7.87,0,0,0,143,5.76a3.33,3.33,0,0,0-1.07-2.32,4.11,4.11,0,0,0-2.9-.89Z"/><path class="cls-1" d="M154.31,20.65a6.17,6.17,0,0,1-3.95-1.26,5.12,5.12,0,0,1-1.88-3.58,7.18,7.18,0,0,1,.15-2.65,5,5,0,0,1,1.1-2.09,5.07,5.07,0,0,1,1.94-1.36,6.79,6.79,0,0,1,2.64-.48,6.61,6.61,0,0,1,2.48.44,3.67,3.67,0,0,1,1.75,1.41,2.48,2.48,0,0,1,.4,1.59,3.69,3.69,0,0,1-.21.93A3.76,3.76,0,0,0,159,13l.49-1.44.46,1.45a6.71,6.71,0,0,1,.2,2.77,5.07,5.07,0,0,1-1.87,3.58A6.19,6.19,0,0,1,154.31,20.65Zm1.21-7.22a.4.4,0,0,0-.17.09.39.39,0,0,0-.16.18,1.58,1.58,0,0,0,.38,0c.17,0,.18-.09.19-.17a.22.22,0,0,0-.08,0h-.16Z"/><path class="cls-2" d="M154.31,9.73a6,6,0,0,1,2.29.4,3.21,3.21,0,0,1,1.52,1.23,2,2,0,0,1,.32,1.27A2.81,2.81,0,0,1,158,14a3.17,3.17,0,0,1-2.71,1.4H155a1.67,1.67,0,0,0,1,.29,3.56,3.56,0,0,0,2-.65,3.52,3.52,0,0,0,1.36-1.83,6.37,6.37,0,0,1,.19,2.56A4.61,4.61,0,0,1,158,19a6.34,6.34,0,0,1-7.28,0A4.58,4.58,0,0,1,149,15.75a6.6,6.6,0,0,1,.13-2.46,4.52,4.52,0,0,1,2.75-3.12,6.45,6.45,0,0,1,2.45-.44m.86,4.47a2.1,2.1,0,0,0,.51-.06.65.65,0,0,0,.57-.6.45.45,0,0,0-.09-.36.64.64,0,0,0-.32-.21.73.73,0,0,0-.25,0h-.16a.84.84,0,0,0-.4.2.81.81,0,0,0-.32.4,2.54,2.54,0,0,0-.16.59,3.37,3.37,0,0,0,.62.07m-.86-5.47a7.21,7.21,0,0,0-2.83.52,5.65,5.65,0,0,0-2.13,1.49,5.53,5.53,0,0,0-1.2,2.29,7.57,7.57,0,0,0-.16,2.84,5.58,5.58,0,0,0,2.06,3.92,7.35,7.35,0,0,0,8.52,0,5.58,5.58,0,0,0,2.06-3.92,7.17,7.17,0,0,0-.23-3l-.92-2.9-.37,1.09a1.56,1.56,0,0,0-.16-.28,4.23,4.23,0,0,0-2-1.6,7.22,7.22,0,0,0-2.67-.47Z"/><path class="cls-1" d="M164,20.65a6.28,6.28,0,0,1-1.72-.25,3.52,3.52,0,0,1-1.62-1,5.81,5.81,0,0,1-1.15-2,12,12,0,0,1-.59-3.16,8.05,8.05,0,0,1,0-1.53,5.08,5.08,0,0,1,.48-1.65,3.42,3.42,0,0,1,1.19-1.35,3.37,3.37,0,0,1,1.87-.48h.26a4.22,4.22,0,0,1,1.55.4,1.87,1.87,0,0,1,.69.55,4.15,4.15,0,0,1,.51-.43,3.49,3.49,0,0,1,1.38-.59A5.86,5.86,0,0,1,168,9.05a3.29,3.29,0,0,1,.79.09,2.53,2.53,0,0,1,1.31.73,2.59,2.59,0,0,1,.65,1.3,4.16,4.16,0,0,1,0,1.53,1.41,1.41,0,0,0,0,.78c.06.12.11.19.18.21h0a.49.49,0,0,0,.28-.09,1.42,1.42,0,0,0,.48-.62l.54-1.13.39,1.19a3.62,3.62,0,0,1,.08,2.31A3.49,3.49,0,0,1,171.58,17a4.21,4.21,0,0,1-1.74.8,4.36,4.36,0,0,1-.94.1,4,4,0,0,1-1-.12,3.45,3.45,0,0,1-1.6-.9,2.32,2.32,0,0,1-.52-.78c0,.19,0,.4,0,.64s0,.6,0,1a5.6,5.6,0,0,1,0,1.23,2.3,2.3,0,0,1-.46,1.17A1.62,1.62,0,0,1,164,20.65Z"/><path class="cls-2" d="M168,9.55a2.81,2.81,0,0,1,.67.07,2,2,0,0,1,1.59,1.64,3.62,3.62,0,0,1,0,1.35,1.83,1.83,0,0,0,0,1.06.82.82,0,0,0,.5.5l.19,0a1,1,0,0,0,.51-.16,1.81,1.81,0,0,0,.68-.84,3.09,3.09,0,0,1,.08,2,2.87,2.87,0,0,1-.94,1.37,3.58,3.58,0,0,1-1.54.71,3.88,3.88,0,0,1-.82.09,3.36,3.36,0,0,1-.85-.1,2.93,2.93,0,0,1-1.38-.78,2.3,2.3,0,0,1-.62-1.58,1.1,1.1,0,0,0-.16-.52c-.06-.08-.11-.13-.17-.13a.16.16,0,0,0-.11.05,1.36,1.36,0,0,0-.26.68,8,8,0,0,0,0,1.76c0,.26,0,.59,0,1a5.24,5.24,0,0,1,0,1.12,2,2,0,0,1-.36.93,1.17,1.17,0,0,1-1,.39,5.64,5.64,0,0,1-1.58-.23,3,3,0,0,1-1.39-.88A5.33,5.33,0,0,1,160,17.23a11.47,11.47,0,0,1-.56-3,7.93,7.93,0,0,1,0-1.44,4.66,4.66,0,0,1,.43-1.49,2.75,2.75,0,0,1,1-1.15,2.82,2.82,0,0,1,1.59-.41h.24a3.63,3.63,0,0,1,1.35.35,1.56,1.56,0,0,1,.82,1,3.8,3.8,0,0,1,.89-.9A3,3,0,0,1,167,9.65a4.73,4.73,0,0,1,.95-.1m0-1a5.9,5.9,0,0,0-1.14.12,4.07,4.07,0,0,0-1.58.67l-.2.15a2.71,2.71,0,0,0-.49-.31,4.8,4.8,0,0,0-1.72-.45h-.31A3.72,3.72,0,0,0,159,10.84a5.56,5.56,0,0,0-.52,1.81,8.42,8.42,0,0,0-.05,1.64,11.86,11.86,0,0,0,.63,3.29,6.32,6.32,0,0,0,1.25,2.15,4.09,4.09,0,0,0,1.84,1.15,6.49,6.49,0,0,0,1.86.27,2.12,2.12,0,0,0,1.78-.78,2.88,2.88,0,0,0,.56-1.42,6.55,6.55,0,0,0,0-1.33v-.08a3.88,3.88,0,0,0,1.43.69,4.48,4.48,0,0,0,1.1.13,5.31,5.31,0,0,0,1-.11,4.72,4.72,0,0,0,1.95-.9,4,4,0,0,0,1.27-1.83,4.15,4.15,0,0,0-.08-2.64l-.77-2.37-1.08,2.25a.36.36,0,0,0,0,.09v0a4.54,4.54,0,0,0,0-1.72,3.12,3.12,0,0,0-.77-1.55,3.06,3.06,0,0,0-1.56-.88,3.85,3.85,0,0,0-.91-.1Z"/><path class="cls-1" d="M177.35,24.54a11.47,11.47,0,0,1-1.2-.06,7.61,7.61,0,0,1-2.36-.63,3.75,3.75,0,0,1-1.43-1.09,4.1,4.1,0,0,1-.7-1.36,3.34,3.34,0,0,1-.1-1.4,2.79,2.79,0,0,1,.39-1.16,1.5,1.5,0,0,1,.93-.68l.17,0h0a5.47,5.47,0,0,1-1.1-1.82,6.46,6.46,0,0,1-.39-2.28,4.85,4.85,0,0,1,1.35-3.59,4.3,4.3,0,0,1,3.16-1.17l.62,0a4.43,4.43,0,0,1,1.31.27,1.56,1.56,0,0,1,.87.86,2.63,2.63,0,0,1,.11,1.29,10.79,10.79,0,0,1-.39,1.68,1.82,1.82,0,0,0-.12,1,.94.94,0,0,0,0,.09l.08-.1a2.72,2.72,0,0,0,.37-1.13,5.35,5.35,0,0,1,1.25-3,4,4,0,0,1,2.94-1,4.4,4.4,0,0,1,1.65.28,2.16,2.16,0,0,1,1.13,1.2,6,6,0,0,1,.37,2.14,31,31,0,0,1-.12,3.37,15.74,15.74,0,0,1-.67,3.52,7,7,0,0,1-1.39,2.47,5.86,5.86,0,0,1-2.21,1.5,12,12,0,0,1-3,.69A14.1,14.1,0,0,1,177.35,24.54Zm-.67-5h.43a3.37,3.37,0,0,0,1.09-.18,2.92,2.92,0,0,0,1.41-.93l-.33.27a4.45,4.45,0,0,1-2.28.8Z"/><path class="cls-2" d="M176.06,9.76l.57,0a4,4,0,0,1,1.16.24,1,1,0,0,1,.6.59,2,2,0,0,1,.08,1,10,10,0,0,1-.37,1.6,2.36,2.36,0,0,0-.12,1.24c.08.31.21.48.4.52h.07c.16,0,.33-.12.51-.35a3.16,3.16,0,0,0,.47-1.36,4.91,4.91,0,0,1,1.12-2.68,3.48,3.48,0,0,1,2.58-.84,3.84,3.84,0,0,1,1.46.24,1.61,1.61,0,0,1,.86.94,5.37,5.37,0,0,1,.33,1.95,32.2,32.2,0,0,1-.11,3.32,15.76,15.76,0,0,1-.66,3.4,6.25,6.25,0,0,1-1.28,2.29,5.36,5.36,0,0,1-2,1.37,11.44,11.44,0,0,1-2.87.67,12.85,12.85,0,0,1-1.49.08,10.33,10.33,0,0,1-1.14-.06A7.41,7.41,0,0,1,174,23.4a3.22,3.22,0,0,1-1.24-.95,3.33,3.33,0,0,1-.61-1.18,2.91,2.91,0,0,1-.1-1.2,2.31,2.31,0,0,1,.32-1,1,1,0,0,1,.63-.47l.15,0a1,1,0,0,1,.66.3,4.63,4.63,0,0,0,.91.6,4.71,4.71,0,0,0,1.14.43,5.27,5.27,0,0,0,1.25.14,3.87,3.87,0,0,0,1.26-.21,3.26,3.26,0,0,0,1.73-1.22,1.39,1.39,0,0,0,0-1.55A3.94,3.94,0,0,1,179,18.35a3.84,3.84,0,0,1-2,.7l-.5,0a4.24,4.24,0,0,1-1.49-.26,4.16,4.16,0,0,1-1.55-1,5,5,0,0,1-1-1.66,5.9,5.9,0,0,1-.36-2.1,4.35,4.35,0,0,1,1.2-3.24,3.83,3.83,0,0,1,2.81-1m0-1a4.79,4.79,0,0,0-3.51,1.31,5.34,5.34,0,0,0-1.5,3.95,6.8,6.8,0,0,0,.43,2.46,6.1,6.1,0,0,0,.74,1.41,2,2,0,0,0-.69.68,3.27,3.27,0,0,0-.47,1.36,4,4,0,0,0,.12,1.61,4.49,4.49,0,0,0,.78,1.52,4.16,4.16,0,0,0,1.61,1.24,8.44,8.44,0,0,0,2.53.68c.4,0,.82.06,1.25.06A15.18,15.18,0,0,0,179,25a12.23,12.23,0,0,0,3.12-.73,6.28,6.28,0,0,0,2.39-1.63A7.08,7.08,0,0,0,186,19.94a16.61,16.61,0,0,0,.7-3.62,32.18,32.18,0,0,0,.12-3.44,6.42,6.42,0,0,0-.41-2.31A2.6,2.6,0,0,0,185,9.1a4.77,4.77,0,0,0-1.84-.32,4.45,4.45,0,0,0-3.29,1.14,3.34,3.34,0,0,0-.44.54c0-.08-.05-.15-.08-.22a2.06,2.06,0,0,0-1.14-1.14,4.74,4.74,0,0,0-1.47-.31l-.65,0Z"/><path class="cls-3" d="M19.84,21.41s8-1.87,11.25,2c0,0-.55-.75-.53-1l.35-1.82a7.37,7.37,0,0,0,5.42-5.2,11.61,11.61,0,0,0-3-12.64C29.69-.48,23.25.91,19.4,4.34l-.25.19S11.68,2,6.57,10.92l-.35.31A6.39,6.39,0,0,0,1,17.59c-.17,5.59,3.34,9.22,7.25,7.78L13,23.43"/><path class="cls-3" d="M31.31,18.59l-.4,2s4.4-.86,5.85-6.84c1.11-4.55-.38-6.84-.38-6.84s-.05,7.61-4.51,10.57l-.4.29Z"/><path class="cls-3" d="M24.93,18.8a8.86,8.86,0,0,1-8.83,1.72c-5.09-1.87-5.57-3.3-7.35-3.16a4.67,4.67,0,0,1,4,0C15.24,18.3,20.19,21.05,24.93,18.8Z"/><path class="cls-3" d="M31.76,16.71s-3,4.4-4.67,4.7a26.81,26.81,0,0,1,3.69,1.27Z"/><path class="cls-3" d="M11.64,24a10.91,10.91,0,0,1-4.81-3.27l1.84,5.5A12.86,12.86,0,0,1,11.64,24Z"/><path class="cls-3" d="M33.37,3.14S27.33-.28,20.55,5L19.4,4.34S27.26-2.69,33.37,3.14Z"/><path class="cls-3" d="M14.61,4.43a15.19,15.19,0,0,0-5.79,6.86l-2.26,0S9.78,4.75,14.61,4.43Z"/><path class="cls-3" d="M7.8,23.62S2.3,25.2,2,14.05a10.49,10.49,0,0,0-.56,7.09c1.09,3.87,4,5.21,6.92,4.16Z"/><path class="cls-3" d="M9.81,16.36c4.33-1,8.31,2.61,12.65,2.35s6.35-5.66,6.35-5.66-3.45,4.77-7.34,4.28-7.54-3.21-11-1.4A2.65,2.65,0,0,0,9.81,16.36Z"/><path class="cls-3" d="M31.94,23.9c-1.55-2.46-4.33-2.73-6.55-3.14a17.38,17.38,0,0,0-6.74.09,19.85,19.85,0,0,0-6.41,2.65,36.57,36.57,0,0,0-4.51,3.63s2.75-1.79,4.77-2.89c.25-.14.51-.27.76-.39l.77-.38c.52-.22,1-.47,1.56-.64a19.65,19.65,0,0,1,3.19-.94A18.1,18.1,0,0,1,22,21.46a21.19,21.19,0,0,1,3.28.1A22.43,22.43,0,0,1,31.94,23.9Z"/><path class="cls-3" d="M30.92,23c.09-1.2.22-2.42.38-3.62a32.68,32.68,0,0,1,.64-3.58,33.09,33.09,0,0,0-1,3.48c-.27,1.19-.52,2.38-.73,3.6Z"/><path class="cls-3" d="M9,26.22a23.87,23.87,0,0,0-1-3.06c-.2-.5-.41-1-.65-1.47a7.78,7.78,0,0,0-.8-1.34c.18.51.32,1,.47,1.54l.43,1.55c.29,1,.58,2.06.91,3.07Z"/><path class="cls-3" d="M29.38,13.23A8.66,8.66,0,0,1,26,18.49a7.22,7.22,0,0,1-1.26.66l-.67.22c-.22.07-.45.08-.68.13a8.52,8.52,0,0,1-2.76,0A28.69,28.69,0,0,1,15.14,18a17.23,17.23,0,0,0-2.81-.78,4.78,4.78,0,0,0-1.46,0,2.51,2.51,0,0,0-1.36.58,3.49,3.49,0,0,1,2.76-.12,26.1,26.1,0,0,1,2.71,1c.9.38,1.82.74,2.75,1.05a15.56,15.56,0,0,0,2.85.68,9.07,9.07,0,0,0,2.94-.08,6.54,6.54,0,0,0,2.78-1.23,7.53,7.53,0,0,0,2.09-2.53,9.75,9.75,0,0,0,.65-1.6A8.93,8.93,0,0,0,29.38,13.23Z"/><path class="cls-3" d="M30.87,20.87A6.79,6.79,0,0,0,33,20a8.25,8.25,0,0,0,1.83-1.49,9,9,0,0,0,1.42-2.07A10.69,10.69,0,0,0,37.05,14a8.58,8.58,0,0,0,.22-1.33,12.08,12.08,0,0,0,.1-1.36,11.72,11.72,0,0,0-.29-2.71,11.51,11.51,0,0,0-2.25-4.66,10.19,10.19,0,0,0-1.75-1.67,8.07,8.07,0,0,0-2-1.13A10.11,10.11,0,0,0,30,.74,8.44,8.44,0,0,0,28.9.55,8,8,0,0,0,27.8.48a4.89,4.89,0,0,0-.54,0,3.31,3.31,0,0,0-.55.05A11.7,11.7,0,0,0,22.53,2a18.24,18.24,0,0,0-3.68,2.74,20.13,20.13,0,0,1,3.8-2.39,12.15,12.15,0,0,1,4.1-1.14,9.13,9.13,0,0,1,2.09.07,8.76,8.76,0,0,1,5.5,3.24,10.91,10.91,0,0,1,2.37,6.77c0,.41-.05.84-.08,1.26a9,9,0,0,1-.18,1.25,11.06,11.06,0,0,1-.73,2.35c-.08.19-.19.35-.28.53s-.18.36-.29.52l-.34.49a5.07,5.07,0,0,1-.36.45,7.72,7.72,0,0,1-1.67,1.52,7.63,7.63,0,0,1-1,.56,6.47,6.47,0,0,1-1,.41Z"/><path class="cls-3" d="M8.22,25A4,4,0,0,1,5,25.27a5.07,5.07,0,0,1-2.47-2.38,11.54,11.54,0,0,1-1.28-3.63,7.65,7.65,0,0,1,.31-3.81,7,7,0,0,1,.85-1.63,6,6,0,0,1,1.24-1.23c.12-.08.23-.18.35-.25l.36-.2L4.58,12,4.77,12l.38-.15c.13-.05.27-.07.4-.11a2.57,2.57,0,0,1,.4-.08c.27,0,.53-.07.81-.07a18.06,18.06,0,0,0,3.42-.31,3.3,3.3,0,0,0,1.6-.81,3.41,3.41,0,0,0,.92-1.75,3.4,3.4,0,0,1-1,1.58,3,3,0,0,1-1.55.6,11.66,11.66,0,0,1-1.68.1l-1.69,0a6.39,6.39,0,0,0-.87,0,2.24,2.24,0,0,0-.44.07c-.15,0-.3.05-.44.09l-.43.16-.21.07-.21.11-.41.21a4.4,4.4,0,0,0-.39.26A6.6,6.6,0,0,0,2,13.26,7.22,7.22,0,0,0,1,15.1a8.45,8.45,0,0,0-.35,4.32,10.78,10.78,0,0,0,.56,2.06c.06.16.11.33.18.49l.22.46a7.15,7.15,0,0,0,.48.91A5.28,5.28,0,0,0,4.9,25.83a3.67,3.67,0,0,0,1.77.09,4.23,4.23,0,0,0,1.66-.66Z"/><path class="cls-3" d="M6,11.25A24.66,24.66,0,0,1,7.43,8.88,17.29,17.29,0,0,1,9.6,6.4a10.42,10.42,0,0,1,2.61-1.78,9,9,0,0,1,2.91-.8,12.09,12.09,0,0,1,5.79,1.11l1.37.59a6.4,6.4,0,0,0,.68.27,2.14,2.14,0,0,0,.34.09,2.29,2.29,0,0,0,.36.07,2.94,2.94,0,0,0,1.41-.08A2.25,2.25,0,0,0,26.28,5,2.3,2.3,0,0,1,25.1,6a3.33,3.33,0,0,1-1.46.21,2.2,2.2,0,0,1-.37,0,1.61,1.61,0,0,1-.37-.07,5.88,5.88,0,0,1-.71-.23l-1.39-.5a12.07,12.07,0,0,0-5.63-.81,8.51,8.51,0,0,0-2.71.83A10.25,10.25,0,0,0,10,7.1a18.87,18.87,0,0,0-3.22,4.19A2.16,2.16,0,0,0,6,11.25Z"/><path class="cls-4" d="M19.84,21.41s8-1.87,11.25,2c0,0-.55-.75-.53-1l.35-1.82a7.37,7.37,0,0,0,5.42-5.2,11.61,11.61,0,0,0-3-12.64C29.69-.48,23.25.91,19.4,4.34l-.25.19S11.68,2,6.57,10.92l-.35.31A6.39,6.39,0,0,0,1,17.59c-.17,5.59,3.34,9.22,7.25,7.78L13,23.43"/><path class="cls-5" d="M31.31,18.59l-.4,2s4.4-.86,5.85-6.84c1.11-4.55-.38-6.84-.38-6.84s-.05,7.61-4.51,10.57l-.4.29Z"/><path class="cls-5" d="M24.93,18.8a8.86,8.86,0,0,1-8.83,1.72c-5.09-1.87-5.57-3.3-7.35-3.16a4.67,4.67,0,0,1,4,0C15.24,18.3,20.19,21.05,24.93,18.8Z"/><path class="cls-5" d="M31.76,16.71s-3,4.4-4.67,4.7a26.81,26.81,0,0,1,3.69,1.27Z"/><path class="cls-5" d="M11.64,24a10.91,10.91,0,0,1-4.81-3.27l1.84,5.5A12.86,12.86,0,0,1,11.64,24Z"/><path class="cls-5" d="M33.37,3.14S27.33-.28,20.55,5L19.4,4.34S27.26-2.69,33.37,3.14Z"/><path class="cls-5" d="M14.61,4.43a15.19,15.19,0,0,0-5.79,6.86l-2.26,0S9.78,4.75,14.61,4.43Z"/><path class="cls-5" d="M7.8,23.62S2.3,25.2,2,14.05a10.49,10.49,0,0,0-.56,7.09c1.09,3.87,4,5.21,6.92,4.16Z"/><path class="cls-5" d="M9.81,16.36c4.33-1,8.31,2.61,12.65,2.35s6.35-5.66,6.35-5.66-3.45,4.77-7.34,4.28-7.54-3.21-11-1.4A2.65,2.65,0,0,0,9.81,16.36Z"/><path class="cls-6" d="M31.94,23.9c-1.55-2.46-4.33-2.73-6.55-3.14a17.38,17.38,0,0,0-6.74.09,19.85,19.85,0,0,0-6.41,2.65,36.57,36.57,0,0,0-4.51,3.63s2.75-1.79,4.77-2.89c.25-.14.51-.27.76-.39l.77-.38c.52-.22,1-.47,1.56-.64a19.65,19.65,0,0,1,3.19-.94A18.1,18.1,0,0,1,22,21.46a21.19,21.19,0,0,1,3.28.1A22.43,22.43,0,0,1,31.94,23.9Z"/><path class="cls-6" d="M30.92,23c.09-1.2.22-2.42.38-3.62a32.68,32.68,0,0,1,.64-3.58,33.09,33.09,0,0,0-1,3.48c-.27,1.19-.52,2.38-.73,3.6Z"/><path class="cls-6" d="M9,26.22a23.87,23.87,0,0,0-1-3.06c-.2-.5-.41-1-.65-1.47a7.78,7.78,0,0,0-.8-1.34c.18.51.32,1,.47,1.54l.43,1.55c.29,1,.58,2.06.91,3.07Z"/><path class="cls-6" d="M29.38,13.23A8.66,8.66,0,0,1,26,18.49a7.22,7.22,0,0,1-1.26.66l-.67.22c-.22.07-.45.08-.68.13a8.52,8.52,0,0,1-2.76,0A28.69,28.69,0,0,1,15.14,18a17.23,17.23,0,0,0-2.81-.78,4.78,4.78,0,0,0-1.46,0,2.51,2.51,0,0,0-1.36.58,3.49,3.49,0,0,1,2.76-.12,26.1,26.1,0,0,1,2.71,1c.9.38,1.82.74,2.75,1.05a15.56,15.56,0,0,0,2.85.68,9.07,9.07,0,0,0,2.94-.08,6.54,6.54,0,0,0,2.78-1.23,7.53,7.53,0,0,0,2.09-2.53,9.75,9.75,0,0,0,.65-1.6A8.93,8.93,0,0,0,29.38,13.23Z"/><path class="cls-6" d="M30.87,20.87A6.79,6.79,0,0,0,33,20a8.25,8.25,0,0,0,1.83-1.49,9,9,0,0,0,1.42-2.07A10.69,10.69,0,0,0,37.05,14a8.58,8.58,0,0,0,.22-1.33,12.08,12.08,0,0,0,.1-1.36,11.72,11.72,0,0,0-.29-2.71,11.51,11.51,0,0,0-2.25-4.66,10.19,10.19,0,0,0-1.75-1.67,8.07,8.07,0,0,0-2-1.13A10.11,10.11,0,0,0,30,.74,8.44,8.44,0,0,0,28.9.55,8,8,0,0,0,27.8.48a4.89,4.89,0,0,0-.54,0,3.31,3.31,0,0,0-.55.05A11.7,11.7,0,0,0,22.53,2a18.24,18.24,0,0,0-3.68,2.74,20.13,20.13,0,0,1,3.8-2.39,12.15,12.15,0,0,1,4.1-1.14,9.13,9.13,0,0,1,2.09.07,8.76,8.76,0,0,1,5.5,3.24,10.91,10.91,0,0,1,2.37,6.77c0,.41-.05.84-.08,1.26a9,9,0,0,1-.18,1.25,11.06,11.06,0,0,1-.73,2.35c-.08.19-.19.35-.28.53s-.18.36-.29.52l-.34.49a5.07,5.07,0,0,1-.36.45,7.72,7.72,0,0,1-1.67,1.52,7.63,7.63,0,0,1-1,.56,6.47,6.47,0,0,1-1,.41Z"/><path class="cls-6" d="M8.22,25A4,4,0,0,1,5,25.27a5.07,5.07,0,0,1-2.47-2.38,11.54,11.54,0,0,1-1.28-3.63,7.65,7.65,0,0,1,.31-3.81,7,7,0,0,1,.85-1.63,6,6,0,0,1,1.24-1.23c.12-.08.23-.18.35-.25l.36-.2L4.58,12,4.77,12l.38-.15c.13-.05.27-.07.4-.11a2.57,2.57,0,0,1,.4-.08c.27,0,.53-.07.81-.07a18.06,18.06,0,0,0,3.42-.31,3.3,3.3,0,0,0,1.6-.81,3.41,3.41,0,0,0,.92-1.75,3.4,3.4,0,0,1-1,1.58,3,3,0,0,1-1.55.6,11.66,11.66,0,0,1-1.68.1l-1.69,0a6.39,6.39,0,0,0-.87,0,2.24,2.24,0,0,0-.44.07c-.15,0-.3.05-.44.09l-.43.16-.21.07-.21.11-.41.21a4.4,4.4,0,0,0-.39.26A6.6,6.6,0,0,0,2,13.26,7.22,7.22,0,0,0,1,15.1a8.45,8.45,0,0,0-.35,4.32,10.78,10.78,0,0,0,.56,2.06c.06.16.11.33.18.49l.22.46a7.15,7.15,0,0,0,.48.91A5.28,5.28,0,0,0,4.9,25.83a3.67,3.67,0,0,0,1.77.09,4.23,4.23,0,0,0,1.66-.66Z"/><path class="cls-6" d="M6,11.25A24.66,24.66,0,0,1,7.43,8.88,17.29,17.29,0,0,1,9.6,6.4a10.42,10.42,0,0,1,2.61-1.78,9,9,0,0,1,2.91-.8,12.09,12.09,0,0,1,5.79,1.11l1.37.59a6.4,6.4,0,0,0,.68.27,2.14,2.14,0,0,0,.34.09,2.29,2.29,0,0,0,.36.07,2.94,2.94,0,0,0,1.41-.08A2.25,2.25,0,0,0,26.28,5,2.3,2.3,0,0,1,25.1,6a3.33,3.33,0,0,1-1.46.21,2.2,2.2,0,0,1-.37,0,1.61,1.61,0,0,1-.37-.07,5.88,5.88,0,0,1-.71-.23l-1.39-.5a12.07,12.07,0,0,0-5.63-.81,8.51,8.51,0,0,0-2.71.83A10.25,10.25,0,0,0,10,7.1a18.87,18.87,0,0,0-3.22,4.19A2.16,2.16,0,0,0,6,11.25Z"/></g></g></svg>